<svg width="80" height="40" viewBox="0 0 80 40" fill="none" xmlns="http://www.w3.org/2000/svg">
<rect x="0.2" y="0.2" width="79.6" height="39.6" rx="4.8" fill="black"/>
<rect x="0.2" y="0.2" width="79.6" height="39.6" rx="4.8" stroke="white" stroke-width="0.4"/>
<path d="M23.6619 26.288C23.9285 26.288 24.1525 26.384 24.3339 26.576L26.2379 28.608C25.2992 29.8027 24.1312 30.7093 22.7339 31.328C21.3472 31.9467 19.6939 32.256 17.7739 32.256C16.0352 32.256 14.4725 31.9627 13.0859 31.376C11.6992 30.7787 10.5205 29.952 9.54988 28.896C8.57921 27.84 7.83254 26.5867 7.30988 25.136C6.78721 23.6853 6.52588 22.1013 6.52588 20.384C6.52588 19.232 6.64854 18.1387 6.89388 17.104C7.14988 16.0587 7.51788 15.0987 7.99788 14.224C8.47788 13.3493 9.05388 12.56 9.72588 11.856C10.4085 11.152 11.1765 10.5547 12.0299 10.064C12.8832 9.56267 13.8112 9.184 14.8139 8.928C15.8272 8.66133 16.9045 8.528 18.0459 8.528C18.8992 8.528 19.7045 8.60266 20.4619 8.752C21.2299 8.90133 21.9445 9.10933 22.6059 9.376C23.2672 9.64267 23.8752 9.968 24.4299 10.352C24.9952 10.7253 25.5019 11.136 25.9499 11.584L24.3339 13.792C24.2379 13.9307 24.1152 14.0533 23.9659 14.16C23.8165 14.2667 23.6139 14.32 23.3579 14.32C23.1019 14.32 22.8405 14.2293 22.5739 14.048C22.3179 13.8667 21.9979 13.664 21.6139 13.44C21.2405 13.216 20.7659 13.0133 20.1899 12.832C19.6245 12.6507 18.9045 12.56 18.0299 12.56C17.0592 12.56 16.1685 12.736 15.3579 13.088C14.5472 13.44 13.8485 13.952 13.2619 14.624C12.6859 15.2853 12.2379 16.1013 11.9179 17.072C11.5979 18.0427 11.4379 19.1467 11.4379 20.384C11.4379 21.632 11.6085 22.7467 11.9499 23.728C12.3019 24.6987 12.7765 25.52 13.3739 26.192C13.9819 26.864 14.6859 27.376 15.4859 27.728C16.2965 28.0693 17.1605 28.24 18.0779 28.24C18.6219 28.24 19.1125 28.2133 19.5499 28.16C19.9979 28.1067 20.4085 28.016 20.7819 27.888C21.1659 27.76 21.5232 27.5947 21.8539 27.392C22.1952 27.1893 22.5365 26.9333 22.8779 26.624C22.9952 26.528 23.1179 26.448 23.2459 26.384C23.3739 26.32 23.5125 26.288 23.6619 26.288ZM54.5476 8.784V32H50.3076V17.744C50.3076 17.4453 50.313 17.1253 50.3236 16.784C50.345 16.4427 50.377 16.096 50.4196 15.744L43.7796 28.336C43.417 29.0293 42.857 29.376 42.0996 29.376H41.4276C41.0543 29.376 40.7236 29.2907 40.4356 29.12C40.1476 28.9387 39.9183 28.6773 39.7476 28.336L33.0756 15.696C33.1076 16.0693 33.1343 16.432 33.1556 16.784C33.177 17.1253 33.1876 17.4453 33.1876 17.744V32H28.9476V8.784H32.5956C32.7983 8.784 32.9796 8.78933 33.1396 8.8C33.2996 8.81067 33.4383 8.84266 33.5556 8.896C33.6836 8.93867 33.7956 9.01333 33.8916 9.12C33.9983 9.216 34.0996 9.35467 34.1956 9.536L40.6916 21.92C40.8943 22.2933 41.081 22.6773 41.2516 23.072C41.433 23.4667 41.6036 23.872 41.7636 24.288C41.9236 23.8613 42.089 23.4453 42.2596 23.04C42.441 22.6347 42.633 22.2453 42.8356 21.872L49.2836 9.536C49.3796 9.35467 49.481 9.216 49.5876 9.12C49.6943 9.01333 49.8063 8.93867 49.9236 8.896C50.0516 8.84266 50.1903 8.81067 50.3396 8.8C50.4996 8.78933 50.6863 8.784 50.8996 8.784H54.5476ZM71.9611 13.232C71.8118 13.4773 71.6571 13.6587 71.4971 13.776C71.3478 13.8827 71.1505 13.936 70.9051 13.936C70.6705 13.936 70.4145 13.856 70.1371 13.696C69.8705 13.5253 69.5558 13.344 69.1931 13.152C68.8305 12.96 68.4145 12.784 67.9451 12.624C67.4758 12.4533 66.9265 12.368 66.2971 12.368C65.1878 12.368 64.3558 12.6187 63.8011 13.12C63.2465 13.6107 62.9691 14.256 62.9691 15.056C62.9691 15.568 63.1185 15.9947 63.4171 16.336C63.7265 16.6667 64.1265 16.9547 64.6171 17.2C65.1185 17.4453 65.6838 17.664 66.3131 17.856C66.9425 18.048 67.5878 18.2613 68.2491 18.496C68.9105 18.72 69.5558 18.9867 70.1851 19.296C70.8145 19.6053 71.3745 19.9947 71.8651 20.464C72.3665 20.9333 72.7665 21.5093 73.0651 22.192C73.3745 22.864 73.5291 23.6853 73.5291 24.656C73.5291 25.712 73.3425 26.704 72.9691 27.632C72.6065 28.5493 72.0785 29.3547 71.3851 30.048C70.6918 30.7307 69.8331 31.2693 68.8091 31.664C67.7958 32.0587 66.6438 32.256 65.3531 32.256C64.6171 32.256 63.8811 32.1813 63.1451 32.032C62.4198 31.8827 61.7158 31.6747 61.0331 31.408C60.3611 31.1413 59.7265 30.8213 59.1291 30.448C58.5318 30.0747 58.0091 29.6587 57.5611 29.2L58.9691 26.928C59.0865 26.7573 59.2411 26.6187 59.4331 26.512C59.6251 26.3947 59.8278 26.336 60.0411 26.336C60.3291 26.336 60.6331 26.4427 60.9531 26.656C61.2731 26.8693 61.6411 27.104 62.0571 27.36C62.4731 27.616 62.9531 27.8507 63.4971 28.064C64.0518 28.2773 64.7131 28.384 65.4811 28.384C66.6011 28.384 67.4651 28.128 68.0731 27.616C68.6918 27.104 69.0011 26.3413 69.0011 25.328C69.0011 24.7413 68.8465 24.2667 68.5371 23.904C68.2385 23.5413 67.8438 23.2373 67.3531 22.992C66.8625 22.7467 66.3025 22.5387 65.6731 22.368C65.0438 22.1867 64.3985 21.9893 63.7371 21.776C63.0758 21.5627 62.4305 21.3067 61.8011 21.008C61.1718 20.7093 60.6118 20.3147 60.1211 19.824C59.6305 19.3333 59.2305 18.7253 58.9211 18C58.6225 17.2747 58.4731 16.3733 58.4731 15.296C58.4731 14.432 58.6438 13.5947 58.9851 12.784C59.3265 11.9733 59.8278 11.2533 60.4891 10.624C61.1505 9.99467 61.9611 9.488 62.9211 9.104C63.8918 8.72 65.0011 8.528 66.2491 8.528C67.6465 8.528 68.9371 8.74666 70.1211 9.184C71.3158 9.61067 72.3238 10.208 73.1451 10.976L71.9611 13.232Z" fill="white"/>
</svg>
